<?xml version="1.0" standalone="no"?>
<!DOCTYPE svg PUBLIC "-//W3C//DTD SVG 20010904//EN"
 "http://www.w3.org/TR/2001/REC-SVG-20010904/DTD/svg10.dtd">
<svg version="1.0" xmlns="http://www.w3.org/2000/svg"
 width="500.000000pt" height="500.000000pt" viewBox="0 0 500.000000 500.000000"
 preserveAspectRatio="xMidYMid meet">

<g transform="translate(0.000000,500.000000) scale(0.100000,-0.100000)"
fill="#000000" stroke="none">
<path d="M0 2500 l0 -2500 2500 0 2500 0 0 2500 0 2500 -2500 0 -2500 0 0
-2500z m3178 2034 c28 -4 121 -92 572 -544 335 -335 547 -554 559 -579 21 -40
21 -51 21 -927 0 -985 4 -930 -69 -1085 -50 -107 -93 -156 -180 -208 -156 -92
-250 -115 -447 -105 l-134 7 0 -155 c0 -120 -4 -171 -19 -229 -28 -110 -85
-221 -141 -277 -54 -53 -88 -82 -95 -82 -3 0 -32 -13 -64 -30 -33 -16 -92 -39
-133 -50 -70 -19 -99 -20 -963 -20 -971 0 -953 -1 -1072 58 -118 57 -145 76
-194 131 -28 31 -65 89 -84 131 -69 153 -65 66 -65 1410 0 1356 -5 1260 72
1416 52 106 141 195 250 248 113 57 162 66 344 66 l162 0 4 178 c6 194 12 221
82 359 48 94 137 178 248 233 132 65 139 65 759 62 305 -1 569 -5 587 -8z"/>
<path d="M2090 4200 c-80 -10 -173 -52 -200 -90 -11 -16 -28 -48 -38 -72 -16
-40 -17 -130 -20 -1188 -2 -831 0 -1161 8 -1205 23 -116 75 -177 178 -211 54
-18 106 -19 897 -19 779 0 844 1 898 18 70 22 132 74 161 137 21 44 21 58 24
823 l3 778 -263 -1 c-207 -1 -275 2 -321 14 -68 19 -123 41 -157 64 -14 9 -29
17 -33 17 -4 0 -11 5 -15 10 -4 6 -16 15 -27 21 -36 20 -132 143 -169 218 -57
114 -65 180 -59 457 l6 239 -404 -1 c-222 -1 -433 -5 -469 -9z"/>
<path d="M3290 3920 c1 -109 19 -218 44 -266 61 -117 116 -145 296 -152 l125
-5 -43 49 c-24 27 -129 132 -233 234 l-189 185 0 -45z"/>
<path d="M1207 3359 c-21 -5 -51 -16 -67 -24 -16 -9 -33 -16 -37 -16 -18 -1
-53 -44 -75 -92 l-23 -52 0 -1195 0 -1195 26 -56 c30 -63 70 -98 144 -125 47
-18 101 -19 870 -22 564 -2 840 1 884 8 77 13 125 37 168 82 52 53 65 104 71
271 l5 148 -589 -2 -589 -2 -80 27 c-44 15 -101 41 -128 57 -26 16 -51 29 -55
29 -4 0 -33 26 -64 57 -39 40 -69 85 -97 143 -74 156 -71 112 -71 1093 l0 877
-127 -1 c-71 -1 -145 -5 -166 -10z"/>
</g>
</svg>
