<?xml version="1.0" standalone="no"?>
<!DOCTYPE svg PUBLIC "-//W3C//DTD SVG 20010904//EN"
 "http://www.w3.org/TR/2001/REC-SVG-20010904/DTD/svg10.dtd">
<svg version="1.0" xmlns="http://www.w3.org/2000/svg"
 width="500.000000pt" height="500.000000pt" viewBox="0 0 500.000000 500.000000"
 preserveAspectRatio="xMidYMid meet">

<g transform="translate(0.000000,500.000000) scale(0.100000,-0.100000)"
fill="#000000" stroke="none">
<path d="M1945 4511 c-188 -54 -332 -189 -403 -379 -23 -60 -26 -85 -30 -249
l-4 -183 -152 0 c-175 0 -265 -18 -369 -72 -85 -44 -203 -164 -244 -248 -66
-136 -63 -59 -63 -1407 l0 -1222 25 -78 c61 -193 232 -352 427 -398 95 -22
1815 -22 1903 0 217 55 385 223 440 440 10 40 15 109 15 217 0 157 0 158 23
160 12 1 92 2 177 3 134 1 164 4 220 24 150 52 274 156 342 287 72 137 69 89
68 1077 0 564 -4 897 -11 914 -12 32 -1060 1083 -1109 1112 -35 21 -43 21
-615 20 -518 0 -586 -2 -640 -18z m1025 -554 c0 -201 4 -277 15 -322 43 -171
164 -321 316 -393 128 -61 152 -64 447 -63 l263 2 -3 -783 -3 -783 -23 -51
c-44 -96 -116 -139 -260 -154 -115 -13 -1501 -12 -1617 0 -170 18 -249 87
-275 238 -7 47 -10 403 -8 1207 l3 1140 22 56 c23 55 66 105 113 130 62 32
134 37 573 38 l437 1 0 -263z m616 -267 c107 -107 194 -197 194 -198 0 -2 -60
-2 -132 0 -192 6 -268 38 -321 135 -33 62 -47 142 -47 267 l0 100 56 -54 c31
-30 143 -143 250 -250z m-2076 -1220 l5 -915 28 -70 c74 -186 214 -315 403
-371 53 -16 118 -17 644 -18 l585 -1 -1 -145 c0 -177 -15 -231 -80 -296 -82
-82 -41 -79 -1014 -79 -810 0 -858 1 -909 19 -69 24 -122 72 -152 139 l-24 52
0 1195 0 1195 24 52 c55 123 150 163 381 159 l105 -1 5 -915z"/>
</g>
</svg>
